<svg height="89" width="400" xmlns="http://www.w3.org/2000/svg"><g fill="none"><path d="m.245 32.623 36.635.008 22.276.003v-22.068z" fill="#ff9d28"/><path d="m59.156 10.566v77.914l27.822-88.335z" fill="#68c5ed"/><path d="m59.156 32.634-22.276-.003 22.276 55.849z" fill="#044d80"/><path d="m.245 32.623 42.347 14.338-5.712-14.33z" fill="#e54747"/><path d="m135.199 67.97c-.323.323-.861.726-1.614 1.21-.754.484-1.735.969-2.945 1.453s-2.69.9-4.438 1.25c-1.75.35-3.752.525-6.011.525-4.358 0-8.124-.7-11.298-2.098s-5.797-3.349-7.867-5.85c-2.071-2.501-3.59-5.46-4.559-8.876-.968-3.416-1.452-7.168-1.452-11.257 0-4.087.524-7.867 1.573-11.336 1.05-3.47 2.623-6.468 4.72-8.998 2.099-2.527 4.721-4.505 7.868-5.93s6.845-2.139 11.095-2.139c2.098 0 3.994.189 5.689.565 1.694.377 3.173.82 4.438 1.331 1.263.512 2.313 1.05 3.147 1.614.833.565 1.465 1.037 1.896 1.412.484.432.9.942 1.251 1.533.35.593.525 1.238.525 1.937 0 1.077-.404 2.152-1.21 3.228a23.326 23.326 0 0 1 -2.664 2.985 32.792 32.792 0 0 0 -2.178-1.976 14.74 14.74 0 0 0 -2.703-1.776c-.996-.51-2.126-.94-3.39-1.29s-2.676-.525-4.236-.525c-2.743 0-5.043.552-6.899 1.654-1.856 1.103-3.349 2.541-4.478 4.317-1.13 1.775-1.937 3.806-2.421 6.092a33.616 33.616 0 0 0 -.726 6.98c0 2.529.242 4.95.726 7.262.484 2.313 1.317 4.358 2.502 6.132 1.182 1.775 2.73 3.201 4.64 4.277 1.908 1.077 4.288 1.614 7.14 1.614 1.505 0 2.891-.188 4.156-.565 1.263-.376 2.38-.834 3.348-1.372a17.203 17.203 0 0 0 2.542-1.694 55.596 55.596 0 0 0 1.816-1.534c.323.378.698.835 1.13 1.373a19.44 19.44 0 0 1 1.21 1.694c.376.593.698 1.184.968 1.775.269.593.403 1.13.403 1.613 0 .7-.134 1.292-.403 1.776-.27.484-.7 1.023-1.291 1.614zm41.583-6.189c0 4.276.622 7.388 1.867 9.336-.974.378-1.88.65-2.72.811-.839.163-1.718.244-2.637.244-1.948 0-3.424-.379-4.424-1.136-1.002-.757-1.638-1.84-1.908-3.248-1.191 1.246-2.76 2.301-4.708 3.167-1.948.865-4.33 1.299-7.144 1.299-1.461 0-2.922-.203-4.383-.606a11.52 11.52 0 0 1 -3.978-1.982c-1.191-.918-2.165-2.146-2.923-3.683-.758-1.538-1.136-3.412-1.136-5.624 0-2.75.662-4.99 1.989-6.716 1.325-1.727 2.99-3.089 4.992-4.087 2.002-.997 4.167-1.684 6.495-2.063 2.326-.378 4.464-.62 6.412-.729.65-.053 1.286-.081 1.908-.081h1.746v-1.478c0-2.08-.556-3.558-1.665-4.433-1.11-.875-2.91-1.314-5.398-1.314-2.327 0-4.398.38-6.21 1.137a50.773 50.773 0 0 0 -5.317 2.597 11.904 11.904 0 0 1 -1.827-3.044c-.46-1.108-.69-1.934-.69-2.476 0-.757.419-1.487 1.259-2.192.838-.702 1.988-1.339 3.45-1.907 1.461-.568 3.138-1.027 5.033-1.38a32.886 32.886 0 0 1 6.007-.528c2.922 0 5.398.298 7.427.893 2.03.596 3.68 1.516 4.952 2.76 1.271 1.246 2.178 2.801 2.72 4.668.54 1.867.812 4.046.812 6.535v15.26zm-10.39-9.416h-1.137c-.38 0-.759.028-1.136.082a50.034 50.034 0 0 0 -4.018.486c-1.327.217-2.505.596-3.532 1.137-1.028.541-1.867 1.245-2.516 2.11-.65.867-.974 1.977-.974 3.329 0 1.515.432 2.8 1.298 3.855.865 1.056 2.327 1.584 4.384 1.584 1.027 0 2.002-.135 2.922-.407.92-.27 1.732-.621 2.436-1.054.702-.433 1.258-.907 1.664-1.421s.609-.987.609-1.42zm30.602-15.992c.863-1.027 2.213-2.07 4.046-3.125 1.835-1.056 4.154-1.583 6.96-1.583 1.997 0 3.898.338 5.706 1.014 1.806.678 3.412 1.774 4.814 3.288 1.403 1.516 2.523 3.519 3.36 6.007.835 2.49 1.254 5.548 1.254 9.173 0 4.221-.486 7.7-1.457 10.432-.972 2.733-2.225 4.898-3.762 6.494-1.538 1.597-3.252 2.72-5.139 3.369-1.888.65-3.777.974-5.665.974-1.564 0-2.927-.176-4.086-.527-1.16-.353-2.145-.744-2.954-1.178-.81-.432-1.43-.864-1.86-1.299-.432-.432-.702-.73-.81-.893v19.955h-11.04v-55.673c.271-.053.599-.108.981-.162.328-.053.71-.094 1.146-.122.436-.026.954-.04 1.553-.04 1.8 0 3.326.298 4.58.893 1.254.596 2.046 1.596 2.373 3.003zm14.613 15.018c0-1.624-.135-3.138-.404-4.546-.269-1.407-.713-2.624-1.332-3.653a6.479 6.479 0 0 0 -2.502-2.395c-1.05-.568-2.328-.852-3.834-.852-2.26 0-3.834.434-4.722 1.299-.888.866-1.331 1.814-1.331 2.841v17.21c.43.433 1.195.947 2.299 1.542 1.104.596 2.38.893 3.834.893 2.745 0 4.763-1.082 6.054-3.247 1.292-2.164 1.938-5.196 1.938-9.092zm20.048 13.963a14.11 14.11 0 0 1 -.73-3.41 39.153 39.153 0 0 1 -.163-3.572v-37.666a87.68 87.68 0 0 1 1.217-.163c.378-.053.784-.093 1.218-.121.433-.027.865-.04 1.298-.04.866 0 1.732.08 2.598.243.865.162 1.65.487 2.355.974.703.487 1.27 1.15 1.704 1.989.433.84.65 1.935.65 3.287v5.763h11.365v8.2h-11.365v17.31c0 3.776 1.542 5.663 4.627 5.663.757 0 1.474-.121 2.151-.365a12.762 12.762 0 0 0 1.827-.812 9.946 9.946 0 0 0 1.42-.933c.406-.325.69-.568.852-.73.812 1.19 1.434 2.222 1.868 3.092.432.871.649 1.689.649 2.453 0 .71-.284 1.408-.852 2.09-.57.682-1.368 1.312-2.395 1.885-1.029.573-2.273 1.037-3.734 1.392-1.461.356-3.059.534-4.79.534-3.356 0-5.967-.65-7.834-1.949-1.867-1.3-3.18-3.004-3.936-5.114zm49.473-1.056c1.357 0 2.552-.148 3.585-.447a14.329 14.329 0 0 0 2.769-1.095c.814-.432 1.52-.906 2.118-1.42.597-.514 1.14-.987 1.63-1.421.65.811 1.33 1.854 2.036 3.125.706 1.272 1.059 2.314 1.059 3.125 0 1.191-.677 2.273-2.03 3.247-1.136.867-2.747 1.611-4.83 2.232-2.083.622-4.533.934-7.346.934-2.545 0-5.047-.324-7.509-.974a16.606 16.606 0 0 1 -6.575-3.41c-1.922-1.622-3.478-3.8-4.668-6.534-1.19-2.733-1.786-6.182-1.786-10.35 0-3.41.528-6.345 1.582-8.808 1.056-2.462 2.463-4.505 4.223-6.129a16.64 16.64 0 0 1 5.966-3.572 20.981 20.981 0 0 1 6.819-1.136c3.03 0 5.6.475 7.711 1.42 2.111.948 3.829 2.22 5.155 3.816 1.326 1.597 2.286 3.423 2.882 5.48.595 2.057.893 4.22.893 6.494v1.136c0 .434-.014.893-.04 1.38l-.081 1.42a8.832 8.832 0 0 1 -.122 1.097h-23.948c.217 2.976 1.14 5.452 2.77 7.428 1.627 1.976 4.207 2.962 7.737 2.962zm3.7-16.479c0-2.598-.505-4.708-1.512-6.332-1.007-1.623-2.817-2.435-5.428-2.435-2.233 0-4.015.771-5.348 2.314-1.335 1.542-2 3.693-2 6.453h14.287zm29.196-11.24c.325-.484.757-1.02 1.299-1.612.54-.59 1.204-1.127 1.989-1.61.784-.483 1.65-.887 2.598-1.209a9.38 9.38 0 0 1 3.044-.483c.65 0 1.34.055 2.07.161.73.108 1.406.31 2.029.604a3.935 3.935 0 0 1 1.502 1.207c.378.51.568 1.14.568 1.892 0 1.18-.298 2.537-.893 4.067-.596 1.533-1.19 2.84-1.785 3.921-.921-.757-1.841-1.34-2.76-1.745-.921-.406-2.004-.61-3.248-.61-1.678 0-3.084.49-4.22 1.466-1.138.977-1.706 2.144-1.706 3.5v26.28h-11.04v-39.608c.27-.053.595-.108.974-.162.325-.053.704-.094 1.137-.122.433-.026.946-.04 1.542-.04 1.732 0 3.233.335 4.506 1.006 1.27.669 2.07 1.702 2.394 3.095zm31.389 0a14.07 14.07 0 0 1 1.299-1.612c.54-.59 1.203-1.127 1.989-1.61.784-.483 1.65-.887 2.597-1.209a9.382 9.382 0 0 1 3.044-.483c.65 0 1.34.055 2.07.161.73.108 1.407.31 2.03.604a3.946 3.946 0 0 1 1.502 1.207c.378.51.568 1.14.568 1.892 0 1.18-.299 2.537-.893 4.067-.597 1.533-1.191 2.84-1.786 3.921-.92-.757-1.841-1.34-2.76-1.745-.92-.406-2.003-.61-3.247-.61-1.678 0-3.085.49-4.221 1.466-1.137.977-1.705 2.144-1.705 3.5v26.28h-11.04v-39.608c.27-.053.595-.108.974-.162.325-.053.703-.094 1.136-.122.433-.026.947-.04 1.542-.04 1.732 0 3.234.335 4.506 1.006 1.27.669 2.07 1.702 2.395 3.095zm52.684 25.202c0 4.276.622 7.388 1.867 9.336-.974.378-1.88.65-2.719.811-.84.163-1.718.244-2.638.244-1.949 0-3.424-.379-4.424-1.136-1.003-.757-1.638-1.84-1.908-3.248-1.19 1.246-2.76 2.301-4.708 3.167-1.948.865-4.33 1.299-7.144 1.299a16.42 16.42 0 0 1 -4.384-.606 11.515 11.515 0 0 1 -3.977-1.982c-1.191-.918-2.165-2.146-2.923-3.683-.758-1.538-1.136-3.412-1.136-5.624 0-2.75.662-4.99 1.99-6.716 1.324-1.727 2.989-3.089 4.992-4.087 2-.997 4.166-1.684 6.494-2.063 2.326-.378 4.464-.62 6.413-.729a23.29 23.29 0 0 1 1.908-.081h1.745v-1.478c0-2.08-.556-3.558-1.665-4.433-1.11-.875-2.91-1.314-5.398-1.314-2.327 0-4.397.38-6.21 1.137a50.83 50.83 0 0 0 -5.317 2.597 11.92 11.92 0 0 1 -1.827-3.044c-.46-1.108-.69-1.934-.69-2.476 0-.757.419-1.487 1.259-2.192.838-.702 1.989-1.339 3.45-1.907s3.138-1.027 5.032-1.38a32.895 32.895 0 0 1 6.008-.528c2.922 0 5.398.298 7.428.893 2.029.596 3.679 1.516 4.951 2.76 1.271 1.246 2.178 2.801 2.72 4.668.54 1.867.811 4.046.811 6.535zm-10.39-9.416h-1.137c-.38 0-.758.028-1.136.082a50.085 50.085 0 0 0 -4.019.486c-1.326.217-2.503.596-3.53 1.137-1.03.541-1.868 1.245-2.517 2.11-.65.867-.975 1.977-.975 3.329 0 1.515.433 2.8 1.3 3.855.864 1.056 2.326 1.584 4.383 1.584a10.26 10.26 0 0 0 2.924-.408 9.98 9.98 0 0 0 2.435-1.054c.702-.433 1.258-.907 1.664-1.421s.609-.987.609-1.42v-8.281z" fill="#044d80"/></g></svg>