<svg height="113" width="398" xmlns="http://www.w3.org/2000/svg"><g fill="#446373"><path d="m82.04 19.408c1.633-2.04 2.858-4.081 2.858-6.53 0-3.674-3.265-6.123-6.939-6.123-3.673 0-6.53 2.45-7.347 6.123l-4.898-1.633c1.226-6.53 6.123-10.612 12.653-10.612 6.94 0 12.653 4.898 12.653 11.836 0 3.674-1.632 7.347-4.49 10.204-5.306 6.123-5.306 6.123-11.02 12.654h15.102v5.306h-24.898v-2.45l16.327-18.775z"/><path d="m66.122 68.388v-20h43.674c.408 2.857.816 5.714.816 8.571 0 30.612-24.898 55.102-55.102 55.102-30.612 0-55.51-24.898-55.51-55.101 0-30.205 24.898-55.103 55.102-55.103v19.593c-19.592 0-35.51 15.918-35.51 35.51s15.918 35.51 35.51 35.51c15.51 0 28.98-10.204 33.878-24.081m62.04-13.879c0-14.694.817-20.408 3.266-24.081 3.265-4.49 8.98-6.94 16.734-6.94 6.531 0 12.245 2.042 15.102 5.307 2.45 2.449 3.266 6.122 3.266 11.428v3.674h-12.245c0-6.122-.408-7.347-1.225-8.571-.816-1.633-2.857-2.45-5.306-2.45s-4.49 1.225-5.306 2.858c-1.224 2.449-1.633 6.938-1.633 19.183 0 9.796.409 15.51 1.225 17.96.816 2.04 2.857 3.265 5.306 3.265 4.898 0 6.123-2.45 6.53-11.429h12.246c0 7.755-.409 11.02-2.041 13.878-2.45 4.49-8.163 6.939-16.735 6.939-9.796 0-15.918-3.674-17.96-11.02-.815-3.266-1.224-10.205-1.224-20zm45.307-30.204h19.183c8.98 0 11.02.408 13.878 2.857 2.857 2.45 4.081 6.123 4.081 11.837 0 4.898-.816 8.571-2.857 11.02-1.632 2.041-3.673 3.266-7.755 4.082 8.163.816 10.612 4.898 11.02 14.694 0 1.633 0 4.898.409 8.98 0 2.857.408 3.265.816 5.714h-13.061c-.408-3.674-.408-4.082-.408-11.429 0-6.939-.409-10.612-2.041-12.245-.816-1.224-2.041-1.224-5.306-1.224h-6.123v24.898h-12.245zm17.142 26.123c5.715 0 7.755-2.45 7.755-8.572 0-3.265-.816-6.122-2.448-7.347-1.225-.816-2.041-1.224-4.898-1.224h-5.307v16.734zm28.164 3.673c0-13.878.408-18.775 2.857-22.857 2.857-4.898 8.98-7.755 17.143-7.755 9.387 0 15.51 3.265 17.959 9.796 1.224 3.265 1.632 9.387 1.632 20.816 0 12.653-.408 18.367-2.448 21.633-2.858 5.714-8.98 8.571-17.552 8.571-8.57 0-14.285-2.449-17.142-7.755-2.041-3.673-2.45-8.571-2.45-22.449zm20 21.633c3.673 0 5.714-1.633 6.53-5.306.408-2.45.817-9.796.817-18.368 0-8.98-.409-14.285-1.225-16.326s-3.265-3.266-6.122-3.266c-3.266 0-5.715 1.633-6.531 4.082-.408 2.449-.816 8.571-.816 17.96 0 7.754.408 13.06.816 15.51.408 4.081 2.857 5.714 6.53 5.714zm24.081-51.429h12.245l4.082 21.633c1.224 7.755 1.632 15.102 2.449 28.571 2.449-18.367 3.265-23.265 4.49-28.571l4.898-21.633h13.877l4.49 21.633c2.04 9.796 2.449 16.734 3.265 28.571.817-10.204 1.633-17.55 3.674-28.571l3.673-21.633h11.02l-11.836 59.592h-13.47l-6.122-27.755c-.816-4.898-2.04-15.919-2.449-22.041-1.633 13.47-2.04 15.102-3.265 22.04l-5.715 27.756h-13.877zm73.062 0h16.734c9.796 0 12.653.408 15.51 2.857 3.674 2.857 5.715 7.755 6.531 17.143.408 3.674.408 8.572.408 12.653 0 10.612-.816 15.919-2.449 19.592-2.449 4.898-8.163 7.755-15.51 7.755h-20.816zm17.55 50.204c4.082 0 6.531-.816 7.347-3.265.817-2.45 1.225-5.714 1.225-15.51 0-10.613-.408-15.102-1.225-18.368-.816-2.449-3.265-3.673-6.938-3.673h-5.306v40.816h4.898zm-246.938-73.469h4.082v109.796h-4.082z"/></g></svg>