<svg height="141" width="498" xmlns="http://www.w3.org/2000/svg"><path d="m65.4 67.6c-11.2 0-16.8-3.2-16.8-11s5.6-11.2 16.8-11.2h17.6c11.6 0 16.6 4.4 16.6 15.9 0 29.2-19 50.2-48.9 50.2-29 0-50.1-22.2-50.1-55.5 0-34 20.8-55.4 52.9-55.4 23.3 0 38.6 11.5 38.6 21.8 0 5.9-4.6 11.2-10.2 11.2-7.1 0-14.7-10.2-29.2-10.2-16.1 0-26.4 11.9-26.4 32.1 0 20.6 10.6 33.1 26.2 33.1 12.5 0 20.9-8.1 21.2-21.1zm77.8 22.7c11.6 0 19.1-7.5 24.4-7.5 5.6 0 9.3 3.7 9.3 9 0 9.1-14.7 19.4-34.9 19.4-22.8 0-40.2-17.4-40.2-41.1s16.8-41.5 39-41.5 37.8 17.7 37.8 38.4c0 8-3.7 9.4-11.5 9.4h-41.5c1.1 8.8 7.6 13.9 17.6 13.9zm12.8-29c-.5-7.9-7.1-13.9-15-13.8-7.8 0-14 5.3-15.6 13.8zm32.2-8.1c-8.2 0-13.1-4-13.1-10 0-6.3 4.7-9.9 14-10.3v-10.2c0-11.3 3.7-16.9 11.6-16.9s11.5 5.6 11.5 16.9v10.2h2.1c9.3 0 14.6 4 14.6 10.3s-4.9 10-14.7 10h-1.9v41.1c0 11.3-3.5 16.9-11.5 16.9s-11.6-5.6-11.6-16.9v-41.1zm52.2 47.3c-2.4 7.1-6.3 10.6-11.5 10.6-6 .2-11.1-4.4-11.3-10.4v-.9c-.1-2.4.3-4.7 1.2-6.9l27.2-73.9c3.8-10.5 9.4-15.5 18.3-15.5 8.1 0 14.3 4.9 17.5 13.8l26.5 75.2c.9 2.4 1.5 4.9 1.6 7.5 0 6.8-5.1 11.2-11.8 11.2-6.2 0-10.2-3.8-12.5-11.6l-3-9.7h-38.7zm35.3-32.6-12-38.9-13 38.9zm47.5 72.9c-8 0-11.6-5.6-11.6-16.9v-78c0-11.3 3.7-16.8 11.6-16.8 4.6 0 8.2 2.4 11 7.4 4.7-5.2 11.2-8 19.1-8 19.4 0 35.3 16.9 35.3 40.8 0 23.4-16.2 41.7-35.6 41.7-6.7.1-13.2-2.3-18.3-6.8v19.7c.2 11.3-3.5 16.9-11.5 16.9zm26.6-51.5c8.8 0 15.3-7.7 15.3-19.7 0-11.8-6.8-19.4-15.3-19.4s-15.3 7.4-15.3 19.4 6.4 19.7 15.3 19.7zm54 51.5c-8 0-11.6-5.6-11.6-16.9v-78c0-11.3 3.7-16.8 11.6-16.8 4.6 0 8.2 2.4 11 7.4 4.7-5.2 11.2-8 19.1-8 19.4 0 35.3 16.9 35.3 40.8 0 23.4-16.2 41.7-35.6 41.7-6.7.1-13.2-2.3-18.3-6.8v19.7c.1 11.3-3.5 16.9-11.5 16.9zm26.5-51.5c8.8 0 15.3-7.7 15.3-19.7 0-11.8-6.8-19.4-15.3-19.4s-15.3 7.4-15.3 19.4 6.5 19.7 15.3 19.7zm53.2-73.3c7.7 0 13.9 6.2 13.9 13.9s-6.2 13.9-13.9 13.9-13.9-6.2-13.9-13.9c.1-7.7 6.3-13.9 13.9-13.9zm0 24.4c5.8 0 10.5-4.7 10.5-10.5s-4.7-10.5-10.5-10.5-10.5 4.7-10.5 10.5 4.7 10.5 10.5 10.5zm-2.2-4.6c.2.8-.4 1.6-1.2 1.8h-.5c-1.3 0-1.7-.6-1.7-1.8v-11.6c0-.9.3-1.6 1.7-1.6h4.3c3.1 0 5.6.9 5.6 4.4 0 2.7-1.4 4-3.8 4.2l2.7 4.4c.1.2.2.5.2.8 0 .8-.5 1.3-1.8 1.3s-1.6-.9-2.1-1.8l-2.4-4.4h-1.1zm2.9-7.1c1.2 0 2-.3 2-1.7s-.8-1.7-2-1.7h-2.8v3.4z" fill="#689f38"/></svg>